<?xml version="1.0" encoding="UTF-8"?>
<svg xmlns="http://www.w3.org/2000/svg" viewBox="0 0 512 512" width="512" height="512">
  <defs>
    <radialGradient id="rg" cx="50%" cy="50%" r="60%">
      <stop offset="0%" stop-color="#ff4060" stop-opacity="0.15"/>
      <stop offset="100%" stop-color="#ff4060" stop-opacity="0"/>
    </radialGradient>
    <radialGradient id="ng" cx="50%" cy="50%" r="50%">
      <stop offset="0%" stop-color="#d4a04a" stop-opacity="0.9"/>
      <stop offset="60%" stop-color="#d4a04a" stop-opacity="0.15"/>
      <stop offset="100%" stop-color="#d4a04a" stop-opacity="0"/>
    </radialGradient>
    <filter id="b4"><feGaussianBlur stdDeviation="4"/></filter>
    <filter id="b8"><feGaussianBlur stdDeviation="8"/></filter>
    <filter id="b16"><feGaussianBlur stdDeviation="16"/></filter>
  </defs>
  <rect width="512" height="512" fill="#060610"/>
  <circle cx="256.0" cy="256.0" r="220.16" fill="none" stroke="#2a7878" stroke-width="1.2" opacity="0.2"/>
  <circle cx="256.0" cy="256.0" r="121.08800000000001" fill="none" stroke="#2a7878" stroke-width="0.6" opacity="0.12"/>
  <line x1="256.0" y1="35.8" x2="385.4" y2="434.1" stroke="#2a7878" stroke-width="0.8" opacity="0.12" stroke-linecap="round"/>
  <line x1="465.4" y1="188.0" x2="126.6" y2="434.1" stroke="#2a7878" stroke-width="0.8" opacity="0.12" stroke-linecap="round"/>
  <line x1="385.4" y1="434.1" x2="46.6" y2="188.0" stroke="#2a7878" stroke-width="0.8" opacity="0.12" stroke-linecap="round"/>
  <line x1="126.6" y1="434.1" x2="256.0" y2="35.8" stroke="#2a7878" stroke-width="0.8" opacity="0.12" stroke-linecap="round"/>
  <line x1="46.6" y1="188.0" x2="465.4" y2="188.0" stroke="#2a7878" stroke-width="0.8" opacity="0.12" stroke-linecap="round"/>
  <circle cx="256.0" cy="35.8" r="7.5" fill="url(#ng)" opacity="0.25"/>
  <circle cx="256.0" cy="35.8" r="2.5" fill="#d4a04a" opacity="0.5"/>
  <circle cx="465.4" cy="188.0" r="7.5" fill="url(#ng)" opacity="0.25"/>
  <circle cx="465.4" cy="188.0" r="2.5" fill="#d4a04a" opacity="0.5"/>
  <circle cx="385.4" cy="434.1" r="7.5" fill="url(#ng)" opacity="0.25"/>
  <circle cx="385.4" cy="434.1" r="2.5" fill="#d4a04a" opacity="0.5"/>
  <circle cx="126.6" cy="434.1" r="7.5" fill="url(#ng)" opacity="0.25"/>
  <circle cx="126.6" cy="434.1" r="2.5" fill="#d4a04a" opacity="0.5"/>
  <circle cx="46.6" cy="188.0" r="7.5" fill="url(#ng)" opacity="0.25"/>
  <circle cx="46.6" cy="188.0" r="2.5" fill="#d4a04a" opacity="0.5"/>
  <path d="M 273.1,232.5 L 273.1,177.6 L 312.9,177.6" stroke="#1a5050" stroke-width="0.7" fill="none" opacity="0.2" stroke-linecap="round"/>
  <path d="M 283.6,265.0 L 283.6,285.9 L 348.1,285.9" stroke="#1a5050" stroke-width="0.7" fill="none" opacity="0.2" stroke-linecap="round"/>
  <path d="M 256.0,285.1 L 256.0,285.1 L 256.0,352.9" stroke="#1a5050" stroke-width="0.7" fill="none" opacity="0.2" stroke-linecap="round"/>
  <path d="M 228.4,265.0 L 228.4,285.9 L 163.9,285.9" stroke="#1a5050" stroke-width="0.7" fill="none" opacity="0.2" stroke-linecap="round"/>
  <path d="M 238.9,232.5 L 199.1,232.5 L 199.1,177.6" stroke="#1a5050" stroke-width="0.7" fill="none" opacity="0.2" stroke-linecap="round"/>
  <circle cx="256.0" cy="256.0" r="130.56" fill="url(#rg)" filter="url(#b16)"/>
  <path d="M 256.0,256.0 C 269.2,263.4 297.2,281.0 323.2,263.9 Q 342.3,248.8 338.3,247.9 Q 342.3,248.8 320.6,236.9 C 291.9,227.0 267.6,247.2 256.0,256.0 Z" fill="#e06878" opacity="0.4"/>
  <line x1="268.3" y1="254.8" x2="325.9" y2="249.1" stroke="#2a7878" stroke-width="0.6" opacity="0.25" stroke-dasharray="3 4"/>
  <circle cx="325.9" cy="249.1" r="1.5" fill="#2a7878" opacity="0.3"/>
  <path d="M 256.0,256.0 C 260.0,270.6 267.3,303.1 297.5,309.5 Q 321.8,312.4 319.5,308.9 Q 321.8,312.4 315.0,288.6 C 302.1,261.3 270.4,258.1 256.0,256.0 Z" fill="#e06878" opacity="0.4"/>
  <line x1="265.5" y1="263.9" x2="310.0" y2="301.0" stroke="#2a7878" stroke-width="0.6" opacity="0.25" stroke-dasharray="3 4"/>
  <circle cx="310.0" cy="301.0" r="1.5" fill="#2a7878" opacity="0.3"/>
  <path d="M 256.0,256.0 C 243.4,264.4 213.9,284.4 218.5,312.4 Q 223.4,336.3 225.9,333.0 Q 223.4,336.3 244.1,322.4 C 265.1,304.4 258.8,270.4 256.0,256.0 Z" fill="#e06878" opacity="0.4"/>
  <line x1="251.5" y1="267.6" x2="230.4" y2="321.5" stroke="#2a7878" stroke-width="0.6" opacity="0.25" stroke-dasharray="3 4"/>
  <circle cx="230.4" cy="321.5" r="1.5" fill="#2a7878" opacity="0.3"/>
  <path d="M 256.0,256.0 C 240.9,256.1 205.3,256.4 193.6,282.4 Q 184.6,305.1 188.5,303.8 Q 184.6,305.1 209.7,305.1 C 237.5,301.8 250.5,269.7 256.0,256.0 Z" fill="#e06878" opacity="0.4"/>
  <path d="M 256.0,256.0 C 249.4,242.4 239.7,213.8 205.3,211.2 Q 180.9,212.8 183.8,215.8 Q 180.9,212.8 192.1,234.8 C 213.3,261.0 241.5,256.6 256.0,256.0 Z" fill="#e06878" opacity="0.4"/>
  <line x1="245.2" y1="250.0" x2="194.6" y2="221.8" stroke="#2a7878" stroke-width="0.6" opacity="0.25" stroke-dasharray="3 4"/>
  <circle cx="194.6" cy="221.8" r="1.5" fill="#2a7878" opacity="0.3"/>
  <path d="M 256.0,256.0 C 261.7,242.0 275.6,212.6 255.2,188.3 Q 237.6,171.3 237.3,175.4 Q 237.6,171.3 227.3,194.7 C 220.0,225.5 245.0,245.8 256.0,256.0 Z" fill="#e06878" opacity="0.4"/>
  <path d="M 256.0,256.0 C 269.6,249.4 301.5,234.0 300.9,205.3 Q 299.4,181.0 296.4,183.8 Q 299.4,181.0 276.1,191.4 C 251.8,206.2 254.7,241.1 256.0,256.0 Z" fill="#e06878" opacity="0.4"/>
  <line x1="262.1" y1="245.2" x2="290.3" y2="194.7" stroke="#2a7878" stroke-width="0.6" opacity="0.25" stroke-dasharray="3 4"/>
  <circle cx="290.3" cy="194.7" r="1.5" fill="#2a7878" opacity="0.3"/>
  <path d="M 256.0,256.0 C 258.8,268.6 264.4,297.1 289.1,304.5 Q 309.3,309.1 307.6,305.9 Q 309.3,309.1 304.6,288.4 C 295.4,264.9 268.1,259.0 256.0,256.0 Z" fill="#e06878" opacity="0.48750000000000004"/>
  <line x1="263.7" y1="263.5" x2="299.9" y2="298.4" stroke="#2a7878" stroke-width="0.6" opacity="0.25" stroke-dasharray="3 4"/>
  <circle cx="299.9" cy="298.4" r="1.5" fill="#2a7878" opacity="0.3"/>
  <path d="M 256.0,256.0 C 246.7,264.9 224.8,285.9 231.5,309.3 Q 238.1,329.1 239.9,326.0 Q 238.1,329.1 254.3,314.6 C 270.2,296.4 260.3,268.0 256.0,256.0 Z" fill="#e06878" opacity="0.48750000000000004"/>
  <path d="M 256.0,256.0 C 244.0,251.1 212.7,240.5 197.3,255.7 Q 182.0,269.7 185.6,270.1 Q 182.0,269.7 201.8,277.7 C 221.5,284.5 246.7,264.3 256.0,256.0 Z" fill="#e06878" opacity="0.48750000000000004"/>
  <path d="M 256.0,256.0 C 253.7,243.3 247.8,213.3 224.8,206.4 Q 204.6,201.0 206.3,204.2 Q 204.6,201.0 207.8,222.6 C 213.9,245.9 243.5,253.1 256.0,256.0 Z" fill="#e06878" opacity="0.48750000000000004"/>
  <line x1="248.5" y1="248.2" x2="213.7" y2="212.0" stroke="#2a7878" stroke-width="0.6" opacity="0.25" stroke-dasharray="3 4"/>
  <circle cx="213.7" cy="212.0" r="1.5" fill="#2a7878" opacity="0.3"/>
  <path d="M 256.0,256.0 C 264.6,246.4 284.9,222.2 276.0,200.9 Q 267.9,181.7 266.4,184.9 Q 267.9,181.7 252.9,197.5 C 238.7,215.4 250.7,244.3 256.0,256.0 Z" fill="#e06878" opacity="0.48750000000000004"/>
  <line x1="257.6" y1="245.3" x2="264.8" y2="195.6" stroke="#2a7878" stroke-width="0.6" opacity="0.25" stroke-dasharray="3 4"/>
  <circle cx="264.8" cy="195.6" r="1.5" fill="#2a7878" opacity="0.3"/>
  <path d="M 256.0,256.0 C 268.4,259.5 295.9,268.0 314.3,249.7 Q 327.9,233.9 324.4,234.0 Q 327.9,233.9 307.6,228.8 C 282.4,226.3 264.4,246.9 256.0,256.0 Z" fill="#e06878" opacity="0.48750000000000004"/>
  <line x1="266.3" y1="252.7" x2="314.1" y2="237.3" stroke="#2a7878" stroke-width="0.6" opacity="0.25" stroke-dasharray="3 4"/>
  <circle cx="314.1" cy="237.3" r="1.5" fill="#2a7878" opacity="0.3"/>
  <path d="M 256.0,256.0 C 252.9,266.3 245.8,290.4 259.8,305.5 Q 272.0,317.8 272.1,314.8 Q 272.0,317.8 276.6,300.9 C 279.6,281.2 263.1,263.5 256.0,256.0 Z" fill="#c43050" opacity="0.575"/>
  <line x1="258.4" y1="264.8" x2="269.7" y2="306.0" stroke="#2a7878" stroke-width="0.6" opacity="0.25" stroke-dasharray="3 4"/>
  <circle cx="269.7" cy="306.0" r="1.5" fill="#2a7878" opacity="0.3"/>
  <path d="M 256.0,256.0 C 245.3,256.6 222.6,256.5 210.7,276.4 Q 203.3,292.1 206.2,291.2 Q 203.3,292.1 221.6,291.8 C 244.4,287.3 251.8,265.9 256.0,256.0 Z" fill="#c43050" opacity="0.575"/>
  <line x1="248.5" y1="261.3" x2="213.7" y2="285.9" stroke="#2a7878" stroke-width="0.6" opacity="0.25" stroke-dasharray="3 4"/>
  <circle cx="213.7" cy="285.9" r="1.5" fill="#2a7878" opacity="0.3"/>
  <path d="M 256.0,256.0 C 253.4,245.6 249.3,223.2 227.7,215.2 Q 210.9,210.8 212.3,213.5 Q 210.9,210.8 215.4,227.9 C 224.8,248.4 246.0,253.1 256.0,256.0 Z" fill="#c43050" opacity="0.575"/>
  <path d="M 256.0,256.0 C 263.0,247.8 279.7,225.9 272.7,209.3 Q 266.6,193.0 265.3,195.8 Q 266.6,193.0 254.4,206.4 C 243.1,220.3 252.0,246.1 256.0,256.0 Z" fill="#c43050" opacity="0.575"/>
  <path d="M 256.0,256.0 C 265.6,260.9 284.0,272.6 305.4,261.2 Q 319.7,251.4 316.7,250.8 Q 319.7,251.4 303.9,243.8 C 280.9,237.6 264.7,250.4 256.0,256.0 Z" fill="#c43050" opacity="0.575"/>
  <path d="M 256.0,256.0 C 249.2,261.4 235.0,269.9 234.7,290.7 Q 236.3,304.6 237.9,302.7 Q 236.3,304.6 248.2,295.9 C 261.9,280.3 257.3,264.6 256.0,256.0 Z" fill="#8a2030" opacity="0.6625"/>
  <path d="M 256.0,256.0 C 250.0,249.7 240.5,236.4 219.5,238.0 Q 205.8,240.8 207.9,242.2 Q 205.8,240.8 215.8,250.9 C 233.1,262.3 247.8,257.5 256.0,256.0 Z" fill="#8a2030" opacity="0.6625"/>
  <line x1="248.8" y1="253.9" x2="215.1" y2="244.3" stroke="#2a7878" stroke-width="0.6" opacity="0.25" stroke-dasharray="3 4"/>
  <circle cx="215.1" cy="244.3" r="1.5" fill="#2a7878" opacity="0.3"/>
  <path d="M 256.0,256.0 C 263.7,251.9 281.3,242.6 283.2,225.8 Q 284.2,211.8 282.3,213.4 Q 284.2,211.8 271.8,218.7 C 258.4,228.5 256.8,247.7 256.0,256.0 Z" fill="#8a2030" opacity="0.6625"/>
  <path d="M 256.0,256.0 C 262.4,261.9 272.5,274.5 293.5,271.7 Q 307.0,268.0 304.9,266.8 Q 307.0,268.0 296.6,257.8 C 278.7,246.6 264.2,253.5 256.0,256.0 Z" fill="#8a2030" opacity="0.6625"/>
  <line x1="263.3" y1="257.6" x2="297.5" y2="265.2" stroke="#2a7878" stroke-width="0.6" opacity="0.25" stroke-dasharray="3 4"/>
  <circle cx="297.5" cy="265.2" r="1.5" fill="#2a7878" opacity="0.3"/>
  <path d="M 256.0,256.0 C 249.3,256.5 235.8,256.5 226.9,268.7 Q 221.3,277.9 223.2,277.4 Q 221.3,277.9 232.4,277.2 C 246.9,273.5 252.7,261.7 256.0,256.0 Z" fill="#8a2030" opacity="0.75"/>
  <line x1="251.1" y1="259.2" x2="228.1" y2="274.2" stroke="#2a7878" stroke-width="0.6" opacity="0.25" stroke-dasharray="3 4"/>
  <circle cx="228.1" cy="274.2" r="1.5" fill="#2a7878" opacity="0.3"/>
  <path d="M 256.0,256.0 C 259.0,250.0 266.1,239.3 260.4,224.5 Q 255.5,215.0 254.9,216.8 Q 255.5,215.0 250.0,224.8 C 245.3,239.8 252.8,250.2 256.0,256.0 Z" fill="#8a2030" opacity="0.75"/>
  <path d="M 256.0,256.0 C 260.6,260.9 271.6,272.3 284.1,270.9 Q 294.8,269.5 293.2,268.3 Q 294.8,269.5 287.2,261.5 C 277.8,253.6 262.4,255.2 256.0,256.0 Z" fill="#8a2030" opacity="0.75"/>
  <path d="M 256.0,256.0 C 259.8,258.7 269.6,264.7 274.1,258.5 Q 278.5,252.5 277.5,252.4 Q 278.5,252.5 272.3,248.0 C 266.0,243.8 258.7,252.4 256.0,256.0 Z" fill="#8a2030" opacity="0.7"/>
  <path d="M 256.0,256.0 C 254.4,260.3 250.5,270.4 258.2,274.1 Q 265.0,276.9 264.9,275.9 Q 265.0,276.9 267.4,270.0 C 269.0,262.1 259.9,257.8 256.0,256.0 Z" fill="#8a2030" opacity="0.7"/>
  <path d="M 256.0,256.0 C 251.6,254.8 243.0,250.9 238.2,259.8 Q 236.0,266.9 237.1,266.7 Q 236.0,266.9 243.2,268.7 C 252.9,268.6 254.5,260.1 256.0,256.0 Z" fill="#8a2030" opacity="0.7"/>
  <path d="M 256.0,256.0 C 254.8,251.5 252.2,241.2 243.7,242.5 Q 236.5,244.2 237.2,245.0 Q 236.5,244.2 238.3,251.8 C 241.3,259.8 251.6,257.1 256.0,256.0 Z" fill="#8a2030" opacity="0.7"/>
  <path d="M 256.0,256.0 C 259.9,253.5 269.1,247.5 265.2,240.2 Q 261.4,233.8 260.8,234.8 Q 261.4,233.8 255.0,237.9 C 248.8,242.8 253.8,252.2 256.0,256.0 Z" fill="#8a2030" opacity="0.7"/>
  <circle cx="256.0" cy="256.0" r="3.4816000000000003" fill="#ff4060" opacity="0.6"/>
</svg>